<svg xmlns="http://www.w3.org/2000/svg" viewBox="0 0 410 404" fill="none">
  <path d="M399.641 59.524L215.643 388.545c-3.46 6.188-12.366 6.211-15.858.042L10.363 59.566c-3.765-6.577 1.818-14.598 9.311-13.412l184.239 29.188a8.02 8.02 0 0 0 2.512-.005l183.78-29.171c7.484-1.188 13.082 6.813 9.436 13.358Z" fill="#FFC857"/>
  <path d="M292.965 1.574 156.724 28.267a4.01 4.01 0 0 0-3.233 3.461l-8.39 141.07a4.01 4.01 0 0 0 4.819 4.16l37.93-8.766c3.548-.82 6.752 2.307 5.815 5.826l-11.264 42.292c-.954 3.584 2.412 6.752 5.916 5.583l23.434-7.815c3.508-1.17 6.88 2.013 5.92 5.603l-17.907 66.893c-1.121 4.19 4.458 6.474 6.536 2.67l1.389-2.543 110.979-221.51c1.858-3.705-1.346-7.826-5.406-7.033l-39.026 7.624c-3.67.716-6.795-2.7-5.743-6.289l25.459-86.86c1.049-3.58-2.049-6.972-5.647-6.267Z" fill="#111111"/>
</svg>
